<svg width="20" height="21" viewBox="0 0 20 21" fill="none" xmlns="http://www.w3.org/2000/svg">
<g clip-path="url(#clip0_1_715)">
<path d="M11.1984 20.9992H0.719844C0.322957 20.9992 0 20.6763 0 20.2794C0 17.9409 0.0661478 14.6529 0.653696 13.1237C1.52529 10.8436 5.29572 9.39612 5.72374 9.24048C6.07393 9.11207 6.46693 9.2755 6.62646 9.61402C7.40856 11.3144 8.74708 12.33 10.2023 12.33C11.6576 12.33 12.9416 11.3378 13.7354 9.61402C13.8911 9.27161 14.284 9.11207 14.6381 9.24048C15.0661 9.39612 18.8366 10.8436 19.7082 13.1237C19.8482 13.4934 19.6654 13.9097 19.2957 14.0498C18.9261 14.1938 18.5097 14.007 18.3696 13.6335C17.9105 12.435 15.9377 11.3533 14.7315 10.8241C13.677 12.6763 12.0233 13.7658 10.2101 13.7658C8.37354 13.7658 6.70428 12.6802 5.64591 10.8241C4.43969 11.3572 2.46304 12.4389 2.00389 13.6335C1.65759 14.5323 1.47082 16.5245 1.44747 19.5557H11.1984C11.5953 19.5557 11.9183 19.8786 11.9183 20.2755C11.9183 20.6724 11.5953 20.9953 11.1984 20.9953V20.9992Z" fill="#D1D5E0"/>
<path d="M17.4609 20.2801V15.6964C17.4609 15.2988 17.1395 14.9766 16.743 14.9766C16.3466 14.9766 16.0251 15.2988 16.0251 15.6964V20.2801C16.0251 20.6776 16.3466 20.9999 16.743 20.9999C17.1395 20.9999 17.4609 20.6776 17.4609 20.2801Z" fill="#D1D5E0"/>
<path d="M14.4543 18.7041H19.038C19.4355 18.7041 19.7578 18.3827 19.7578 17.9862C19.7578 17.5897 19.4355 17.2683 19.038 17.2683H14.4543C14.0568 17.2683 13.7345 17.5897 13.7345 17.9862C13.7345 18.3827 14.0568 18.7041 14.4543 18.7041Z" fill="#D1D5E0"/>
<path d="M10.1259 8.87821C12.2018 8.87821 13.8847 7.04728 13.8847 4.78871C13.8847 2.53015 12.2018 0.699219 10.1259 0.699219C8.05004 0.699219 6.36719 2.53015 6.36719 4.78871C6.36719 7.04728 8.05004 8.87821 10.1259 8.87821Z" stroke="#D1D5E0" stroke-width="1.42236" stroke-miterlimit="10"/>
</g>
<defs>
<clipPath id="clip0_1_715">
<rect width="19.7549" height="21" fill="white"/>
</clipPath>
</defs>
</svg>
