<svg width="24" height="23" viewBox="0 0 24 23" fill="none" xmlns="http://www.w3.org/2000/svg">
<path d="M5.3862 12.2357H0.737562C0.330906 12.2357 0 11.9048 0 11.4981C0 11.0915 0.330906 10.7606 0.737562 10.7606H5.3862C5.79286 10.7606 6.12376 11.0915 6.12376 11.4981C6.12376 11.9048 5.79286 12.2357 5.3862 12.2357Z" fill="#D1D5E0"/>
<path d="M22.2665 12.2357H17.6178C17.2112 12.2357 16.8803 11.9048 16.8803 11.4981C16.8803 11.0915 17.2112 10.7606 17.6178 10.7606H22.2665C22.6731 10.7606 23.004 11.0915 23.004 11.4981C23.004 11.9048 22.6731 12.2357 22.2665 12.2357Z" fill="#D1D5E0"/>
<path d="M11.5017 23C11.0951 23 10.7642 22.6691 10.7642 22.2624V17.6138C10.7642 17.2071 11.0951 16.8762 11.5017 16.8762C11.9084 16.8762 12.2393 17.2071 12.2393 17.6138V22.2624C12.2393 22.6691 11.9084 23 11.5017 23Z" fill="#D1D5E0"/>
<path d="M11.5017 6.11977C11.0951 6.11977 10.7642 5.78887 10.7642 5.38221V0.737562C10.7642 0.330906 11.0951 0 11.5017 0C11.9084 0 12.2393 0.330906 12.2393 0.737562V5.3862C12.2393 5.79286 11.9084 6.12376 11.5017 6.12376V6.11977Z" fill="#D1D5E0"/>
<path d="M11.5022 21.525C5.97642 21.525 1.47928 17.0279 1.47928 11.5022C1.47928 5.97642 5.97243 1.47928 11.5022 1.47928C17.0319 1.47928 21.525 5.97642 21.525 11.5022C21.525 17.0279 17.0279 21.525 11.5022 21.525ZM11.5022 2.95042C6.78574 2.95042 2.95042 6.78574 2.95042 11.5022C2.95042 16.2186 6.78574 20.0539 11.5022 20.0539C16.2186 20.0539 20.0539 16.2186 20.0539 11.5022C20.0539 6.78574 16.2146 2.95042 11.5022 2.95042Z" fill="#D1D5E0"/>
</svg>
