<svg width="22" height="21" viewBox="0 0 22 21" fill="none" xmlns="http://www.w3.org/2000/svg">
<path d="M16.8552 20.9808C16.5285 20.9808 16.1752 20.8859 15.8181 20.6997L10.9594 18.1431L6.08169 20.7073C5.7398 20.8897 5.31433 20.7567 5.13579 20.4148C4.95724 20.0729 5.0864 19.6474 5.42829 19.4689L10.6327 16.7337C10.8378 16.6274 11.0809 16.6274 11.2861 16.7337L16.4677 19.4613C16.7108 19.5867 16.8514 19.5905 16.8817 19.5829C16.8703 19.5791 16.9121 19.4423 16.8665 19.1726L15.8751 13.4022C15.8371 13.1743 15.913 12.9425 16.0764 12.783L20.2665 8.69924C20.464 8.5055 20.5096 8.37254 20.5096 8.34215C20.5058 8.34975 20.3843 8.26998 20.1107 8.23199L14.3175 7.38865C14.0896 7.35446 13.8921 7.2139 13.7895 7.00497L11.1531 1.67522C10.9822 1.32953 11.1227 0.907859 11.4722 0.736912C11.8217 0.565965 12.2396 0.706522 12.4105 1.05601L14.8836 6.05526L20.3121 6.84542C21.1022 6.95938 21.6607 7.35446 21.8468 7.93188C22.0329 8.5055 21.8126 9.1551 21.2428 9.70973L17.3148 13.5389L18.2417 18.9447C18.3747 19.7272 18.1733 20.3806 17.6833 20.7377C17.444 20.9125 17.1591 20.9998 16.8476 20.9998L16.8552 20.9808Z" fill="#D1D5E0"/>
<path d="M5.06388 20.9809C4.75238 20.9809 4.46747 20.8935 4.22814 20.7188C3.73809 20.3655 3.53676 19.7121 3.66971 18.9295L4.59663 13.5238L0.668645 9.69459C0.0988213 9.13996 -0.121509 8.49037 0.0646333 7.91674C0.250776 7.34312 0.809203 6.94804 1.59936 6.83028L7.02787 6.04013L9.45532 1.12065C9.80861 0.406474 10.3556 0 10.9597 0C11.5523 0 12.0879 0.391279 12.4412 1.07507C12.6083 1.39797 12.5248 1.81584 12.2247 2.01717C11.8638 2.2527 11.3927 2.11594 11.2066 1.74366C11.085 1.49674 10.971 1.40936 10.9407 1.40177C10.9483 1.41316 10.8343 1.49674 10.7127 1.74366L8.12193 6.99363C8.01937 7.19877 7.82183 7.34312 7.5939 7.37731L1.80069 8.22065C1.52718 8.25864 1.40942 8.34221 1.39042 8.3688C1.39042 8.3688 1.4512 8.50176 1.64494 8.6917L5.83504 12.7754C6.00219 12.935 6.07437 13.1705 6.03638 13.3946L5.04489 19.1651C4.9993 19.4348 5.04109 19.5715 5.06008 19.5981C5.06008 19.5867 5.19304 19.5829 5.42477 19.4652C5.72488 19.3132 6.10856 19.3702 6.31749 19.6361C6.59861 19.9932 6.48084 20.4984 6.09716 20.6998C5.74007 20.8897 5.38298 20.9809 5.06008 20.9809H5.06388Z" fill="#D1D5E0"/>
</svg>
